<?xml version="1.0"?>
<svg xmlns="http://www.w3.org/2000/svg" xmlns:xlink="http://www.w3.org/1999/xlink" version="1.1" id="Layer_1" x="0px" y="0px" viewBox="0 0 511.999 511.999" style="enable-background:new 0 0 511.999 511.999;" xml:space="preserve" width="512px" height="512px" class=""><g><g>
	<g>
		<path d="M318.221,135.917H176.751c-4.351,0-7.878,3.527-7.878,7.878c0,4.352,3.527,7.878,7.878,7.878h141.471    c6.257,0,11.347,5.09,11.347,11.347v122.378c0,6.258-5.09,11.348-11.347,11.348h-22.277c-4.351,0-7.878,3.526-7.878,7.878    s3.527,7.878,7.878,7.878h22.277c14.946,0,27.104-12.159,27.104-27.105V163.021C345.325,148.075,333.166,135.917,318.221,135.917z    " data-original="#000000" class="active-path" data-old_color="#000000" fill="#2488AF"/>
	</g>
</g><g>
	<g>
		<path d="M264.431,296.745H65.315c-6.258,0-11.347-5.09-11.347-11.348v-51.932c-0.001-2.891,1.088-5.645,3.065-7.756l65.987-70.445    c2.139-2.282,5.158-3.59,8.283-3.59h13.935c4.351,0,7.878-3.526,7.878-7.878s-3.527-7.878-7.878-7.878h-13.935    c-7.464,0-14.674,3.125-19.781,8.574l-65.989,70.446c-4.722,5.042-7.323,11.621-7.323,18.529v51.932    c0,14.946,12.159,27.105,27.104,27.105h199.118c4.351,0,7.878-3.526,7.878-7.878S268.782,296.745,264.431,296.745z" data-original="#000000" class="active-path" data-old_color="#000000" fill="#2488AF"/>
	</g>
</g><g>
	<g>
		<path d="M483.695,239.14c-12.873,0-23.759,8.642-27.181,20.426h-72.977v-96.544c0-36.014-29.3-65.315-65.315-65.315h-3.546    c-4.351,0-7.878,3.526-7.878,7.878s3.527,7.878,7.878,7.878h3.546c27.326,0,49.558,22.232,49.558,49.558v104.423v17.954    c0,27.326-22.232,49.558-49.558,49.558h-55.654H123.965c-4.351,0-7.878,3.526-7.878,7.878s3.527,7.878,7.878,7.878h137.768    l194.426,41.803c2.956,12.469,14.177,21.776,27.536,21.776c15.606,0,28.304-12.698,28.304-28.304V267.444    C511.999,251.838,499.301,239.14,483.695,239.14z M374.394,318.674c4.524-7.618,7.501-16.136,8.598-24.933    c0.345-2.766,0.544-5.554,0.544-8.342v-10.076h38.304v17.143c0,14.541-11.83,26.37-26.37,26.37h-21.171    C374.332,318.783,374.361,318.728,374.394,318.674z M455.389,376.235l-124.466-26.761c0.084-0.018,0.166-0.039,0.25-0.056    c0.329-0.066,0.653-0.145,0.98-0.216c10.663-2.326,20.755-7.423,28.971-14.607h34.345c23.229,0,42.127-18.898,42.127-42.127    v-17.143h17.792V376.235z M496.242,385.988c0,6.919-5.629,12.548-12.548,12.548c-6.919,0-12.549-5.628-12.549-12.549V267.444    c0-6.919,5.629-12.548,12.549-12.548c6.918,0,12.548,5.628,12.548,12.548V385.988z" data-original="#000000" class="active-path" data-old_color="#000000" fill="#2488AF"/>
	</g>
</g><g>
	<g>
		<path d="M283.162,97.707h-151.86c-17.993,0-35.366,7.531-47.667,20.662l-65.988,70.446C6.267,200.963,0,216.82,0,233.466v51.932    c0,36.014,29.3,65.315,65.315,65.315h27.137c4.351,0,7.878-3.526,7.878-7.878s-3.527-7.878-7.878-7.878H65.315    c-27.326,0-49.558-22.232-49.558-49.558v-51.932c0-12.629,4.755-24.662,13.39-33.88l65.988-70.446    c9.333-9.962,22.516-15.677,36.168-15.677h151.86c4.351,0,7.878-3.526,7.878-7.878S287.513,97.707,283.162,97.707z" data-original="#000000" class="active-path" data-old_color="#000000" fill="#2488AF"/>
	</g>
</g></g> </svg>
