<?xml version="1.0" encoding="UTF-8" standalone="no"?>
<!-- Generator: Adobe Illustrator 16.0.0, SVG Export Plug-In . SVG Version: 6.00 Build 0)  -->

<svg
   xmlns:dc="http://purl.org/dc/elements/1.1/"
   xmlns:cc="http://creativecommons.org/ns#"
   xmlns:rdf="http://www.w3.org/1999/02/22-rdf-syntax-ns#"
   xmlns:svg="http://www.w3.org/2000/svg"
   xmlns="http://www.w3.org/2000/svg"
   xmlns:sodipodi="http://sodipodi.sourceforge.net/DTD/sodipodi-0.dtd"
   xmlns:inkscape="http://www.inkscape.org/namespaces/inkscape"
   version="1.1"
   id="Capa_1"
   x="0px"
   y="0px"
   width="49.654px"
   height="49.654px"
   viewBox="0 0 49.654 49.654"
   style="enable-background:new 0 0 49.654 49.654;"
   xml:space="preserve"
   sodipodi:docname="user.svg"
   inkscape:version="0.92.4 (5da689c313, 2019-01-14)"><metadata
   id="metadata43"><rdf:RDF><cc:Work
       rdf:about=""><dc:format>image/svg+xml</dc:format><dc:type
         rdf:resource="http://purl.org/dc/dcmitype/StillImage" /><dc:title></dc:title></cc:Work></rdf:RDF></metadata><defs
   id="defs41" /><sodipodi:namedview
   pagecolor="#ffffff"
   bordercolor="#666666"
   borderopacity="1"
   objecttolerance="10"
   gridtolerance="10"
   guidetolerance="10"
   inkscape:pageopacity="0"
   inkscape:pageshadow="2"
   inkscape:window-width="1920"
   inkscape:window-height="1001"
   id="namedview39"
   showgrid="false"
   inkscape:zoom="4.7528901"
   inkscape:cx="24.827"
   inkscape:cy="24.827"
   inkscape:window-x="-9"
   inkscape:window-y="-9"
   inkscape:window-maximized="1"
   inkscape:current-layer="Capa_1" />
<g
   id="g6"
   style="fill:#ffffff;fill-opacity:1">
	<g
   id="g4"
   style="fill:#ffffff;fill-opacity:1">
		<path
   d="M24.827,0C11.138,0,0.001,11.138,0.001,24.827c0,13.689,11.137,24.827,24.826,24.827    c13.688,0,24.826-11.138,24.826-24.827C49.653,11.138,38.517,0,24.827,0z M39.142,38.51c0-0.574,0-0.979,0-0.979    c0-3.386-3.912-4.621-6.006-5.517c-0.758-0.323-2.187-1.011-3.653-1.728c-0.495-0.242-0.941-0.887-0.997-1.438l-0.162-1.604    c1.122-1.045,2.133-2.5,2.304-4.122h0.253c0.398,0,0.773-0.298,0.832-0.663l0.397-2.453c0.053-0.524-0.442-0.842-0.843-0.842    c0.011-0.052,0.02-0.105,0.025-0.149c0.051-0.295,0.082-0.58,0.102-0.857c0.025-0.223,0.045-0.454,0.056-0.693    c0.042-1.158-0.154-2.171-0.479-2.738c-0.33-0.793-0.83-1.563-1.526-2.223c-1.939-1.836-4.188-2.551-6.106-1.075    c-1.306-0.226-2.858,0.371-3.979,1.684c-0.612,0.717-0.993,1.537-1.156,2.344c-0.146,0.503-0.243,1.112-0.267,1.771    c-0.026,0.733,0.046,1.404,0.181,1.947c-0.382,0.024-0.764,0.338-0.764,0.833l0.396,2.453c0.059,0.365,0.434,0.663,0.832,0.663    h0.227c0.36,1.754,1.292,3.194,2.323,4.198l-0.156,1.551c-0.056,0.55-0.502,1.193-0.998,1.438    c-1.418,0.692-2.815,1.358-3.651,1.703c-1.97,0.812-6.006,2.131-6.006,5.517v0.766c-3.288-3.541-5.316-8.266-5.316-13.467    c0-10.932,8.894-19.826,19.826-19.826c10.933,0,19.826,8.894,19.826,19.826C44.653,30.133,42.548,34.946,39.142,38.51z"
   id="path2"
   style="fill:#ffffff;fill-opacity:1" />
	</g>
</g>
<g
   id="g8">
</g>
<g
   id="g10">
</g>
<g
   id="g12">
</g>
<g
   id="g14">
</g>
<g
   id="g16">
</g>
<g
   id="g18">
</g>
<g
   id="g20">
</g>
<g
   id="g22">
</g>
<g
   id="g24">
</g>
<g
   id="g26">
</g>
<g
   id="g28">
</g>
<g
   id="g30">
</g>
<g
   id="g32">
</g>
<g
   id="g34">
</g>
<g
   id="g36">
</g>
</svg>